<?xml version="1.0" encoding="utf-8"?>
<!-- Generator: Adobe Illustrator 20.1.0, SVG Export Plug-In . SVG Version: 6.00 Build 0)  -->
<svg version="1.1" id="Layer_1" xmlns="http://www.w3.org/2000/svg" xmlns:xlink="http://www.w3.org/1999/xlink" x="0px" y="0px"
	 viewBox="0 0 562 160" style="enable-background:new 0 0 562 160;" xml:space="preserve">
<style type="text/css">
	.st0{fill:#FFFFFF;}
	.st1{fill:#00AFDA;}
</style>
<g>
	<g>
		<path class="st0" d="M528.4,74.6c-2.8,0-5.2-0.8-6.7-1.7c-1.5-1.1-2-2.1-2.1-3.7c0.1-2.2,0.6-3.2,1.6-4.1c1.1-0.9,3.3-1.6,6.8-1.6
			h16.2v11.1H528.4z M535.6,42.7h-17.1v7.1h17.1c4.1,0,7.5,2.8,8.5,6.6h-16c-4.4,0-8.2,0.9-11.1,3.1c-2.9,2.2-4.4,5.9-4.4,9.7
			c0,4,2.2,7.5,5.2,9.5c2.9,2.1,6.7,2.9,10.6,2.9l16,0.1h7V58.5C551.4,49.8,544.3,42.7,535.6,42.7 M486.1,58.4
			c-4.7,0-8.3,0.6-8.4-4.1v-1.7c0,0-0.3-3.5,7.3-3h17.3v-7.1h-15.7c-8.7,0-15.3,0.8-15.8,9.2v2.2c0,8.6,4.2,11.5,12.6,11.6l6.6,0.1
			c4.7,0,6.6-0.7,7,4.1v1.5c-0.1,3.9-4,3.5-8.7,3.5h-17.4v7h20.1c8.7,0,13.3-2.5,13.1-10.4v-2.5c-0.6-9.8-6.9-10.3-15.4-10.4H486.1z
			 M455,65.8c0,4.8-3.9,8.7-8.7,8.7h-7.2c-4.8,0-8.7-3.9-8.7-8.7v-7.3c0-4.8,3.9-8.8,8.7-8.8h7.2c4.8,0,8.7,4,8.7,8.8V65.8z
			 M462.1,58.5c0-8.8-7.1-15.8-15.8-15.8h-7.2c-8.7,0-15.8,7-15.8,15.8v7.3c0,8.7,7.1,15.8,15.8,15.8h7.2c8.7,0,15.8-7.1,15.8-15.8
			V58.5z M407.6,65.8c0,4.8-3.9,8.7-8.7,8.7h-7.2c-4.8,0-8.7-3.9-8.7-8.7v-7.3c0-4.8,3.9-8.8,8.7-8.8h7.2c4.8,0,8.7,4,8.7,8.8V65.8z
			 M414.7,58.5c0-8.8-7.1-15.8-15.8-15.8h-7.2c-8.7,0-15.8,7-15.8,15.8v7.3c0,8.7,7.1,15.8,15.8,15.8h7.2c8.7,0,15.8-7.1,15.8-15.8
			V58.5z M360,81.6h7.1v-58H360V81.6z M328.4,74.6c-2.8,0-5.2-0.8-6.7-1.7c-1.5-1.1-2-2.1-2.1-3.7c0.1-2.2,0.6-3.2,1.6-4.1
			c1.1-0.9,3.3-1.6,6.8-1.6h16.2v11.1H328.4z M335.6,42.7h-17.1v7.1h17.1c4.1,0,7.5,2.8,8.6,6.6h-16c-4.4,0-8.2,0.9-11.1,3.1
			c-2.9,2.2-4.4,5.9-4.4,9.7c0,4,2.2,7.5,5.2,9.5c2.9,2.1,6.7,2.9,10.6,2.9l16,0.1h7V58.5C351.4,49.8,344.3,42.7,335.6,42.7
			 M303.9,81.6v-7h-17.4c-4.8,0-8.7-4-8.7-8.8v-7.3c0-4.8,3.9-8.8,8.7-8.8h17.4v-7h-17.4c-8.7,0-15.8,7-15.8,15.8v7.3
			c0,8.8,7.1,15.8,15.8,15.8H303.9z M244.2,58.4c-4.7,0-8.3,0.6-8.4-4.1v-1.7c0,0-0.3-3.5,7.3-3h17.3v-7.1h-15.7
			c-8.7,0-15.3,0.8-15.8,9.2v2.2c0,8.6,4.2,11.5,12.6,11.6l6.6,0.1c4.7,0,6.6-0.7,7,4.1v1.5c-0.1,3.9-4,3.5-8.7,3.5h-17.4v7h20.1
			c8.7,0,13.3-2.5,13.1-10.4v-2.5c-0.6-9.8-6.9-10.3-15.4-10.4H244.2z M213.2,42.6v23.2c-0.1,4.8-4,8.7-8.8,8.8h-7.2
			c-4.8-0.1-8.7-4-8.7-8.8V42.6h-7.1v23.2c0,8.7,7.1,15.8,15.8,15.8h7.2c8.7,0,15.8-7.1,15.8-15.8V42.6H213.2z M141.7,29.4v6.4h15.8
			v45.9h7.1V35.8h15.9v-6.4H141.7z"/>
		<path class="st1" d="M69.6,29.7c-3.1,7.7-1.8,14.5,0,21.2C71.4,44.2,72.7,37.4,69.6,29.7 M69.6,97.7c3.1-6.9,1.9-13.7-0.1-20.6
			C67.9,84,66.4,90.8,69.6,97.7 M58.8,70.5c-7.9,1.2-16.7,6.3-18.4,10.7C48,80.2,53.3,75.5,58.8,70.5 M99.6,81.3
			c-5.2-6.6-11.9-9-18.9-10.8C85.8,75.5,91.1,80.2,99.6,81.3 M58.6,57.9c-5.2-5-10.6-9.9-19-11C44.8,53.6,51.7,55.8,58.6,57.9
			 M79.5,58.3c8.7-1.7,17.4-6.9,19.3-11.4C91,48,85.6,53,79.5,58.3 M105.9,105.9c0.3-0.2,0.6-0.5,0.9-0.7c-1.5-6.1-3-12.2-4.6-18.3
			c-0.2-0.7-1.1-1.6-1.7-1.7c-2.9-0.5-5.8-0.8-8.8-1.1c2.5,4.9,2.8,10,2,15.3c-0.1,0.9,0.5,2.5,1.2,2.8
			C98.5,103.6,102.2,104.7,105.9,105.9 M75.6,35c4.8-5.6,5.3-5.9,12.8-9.5c0.7-0.3,1.5-1.5,1.4-2.1c-0.6-4-1.5-7.9-2.5-12.6
			c-5.2,4.9-9.7,9.1-14.2,13.4c-1.2,1.1-1.3,2.2-0.5,3.7C74,30,74.7,32.5,75.6,35 M47.5,44.3c-2.6-4.9-2.9-9.9-2.1-15.1
			c0.1-1-0.3-2.7-0.9-3c-3.7-1.5-7.6-2.6-12.4-4.2c1.8,7.2,3.3,13.4,5,19.5c0.2,0.7,1.3,1.4,2.1,1.6C41.8,43.6,44.5,43.9,47.5,44.3
			 M91.7,44.2c3-0.4,5.9-0.7,8.8-1.1c0.6-0.1,1.4-0.7,1.5-1.2c1.7-6.3,3.2-12.7,4.8-19.1c-0.3-0.2-0.6-0.4-0.9-0.5
			c-3.6,1.2-7.3,2.4-10.9,3.8c-0.7,0.3-1.5,1.7-1.4,2.4C94.5,33.9,94.2,39.2,91.7,44.2 M115,61.8c2.7-2.4,5.9-5.4,9.8-8.9
			c-6.7-2-12.5-3.8-18.4-5.5c-0.9-0.3-2.4-0.1-2.9,0.5c-1.9,2.2-3.6,4.6-4.8,6.2C103.7,56.5,108.9,58.9,115,61.8 M47.4,84
			c-3.1,0.4-5.9,0.6-8.7,1.1c-0.6,0.1-1.5,0.8-1.7,1.3c-1.7,6.2-3.2,12.5-4.8,18.7c0.3,0.2,0.5,0.4,0.8,0.6
			c3.4-1.1,6.8-2.3,10.3-3.2c2-0.6,2.4-1.7,2-3.6C44.5,93.8,45.1,88.9,47.4,84 M86.6,116.8c0.4-0.1,0.7-0.3,1.1-0.4
			c0.8-3.8,1.6-7.5,2.2-11.3c0.1-0.7-0.5-1.9-1-2.2c-5.2-2.2-10-4.9-13.2-9.8c-1,2.6-2.1,4.9-2.8,7.4c-0.3,1-0.3,2.7,0.3,3.4
			C77.6,108.3,82.1,112.5,86.6,116.8 M51.7,10.8c-1,4.8-1.9,8.7-2.5,12.5c-0.1,0.6,0.4,1.7,0.9,1.9c5.3,2.1,10.1,4.9,13.4,9.9
			c1-2.7,1.7-5.1,2.9-7.1c1-1.7,0.7-2.8-0.5-4C61.3,19.8,56.9,15.6,51.7,10.8 M14.3,75.4c7.1,2,13.3,3.8,19.6,5.5
			c0.6,0.2,1.7-0.4,2.2-1c1.8-2.1,3.4-4.3,4.6-5.8c-5.1-2.4-10.4-4.9-16.4-7.7C21.6,68.8,18.3,71.8,14.3,75.4 M24.9,62.5
			c5-4,10-7.2,16.2-7.6c-1.8-2.4-3.4-4.6-5.2-6.6c-0.5-0.6-1.8-1.2-2.5-1c-6.1,1.7-12.2,3.5-19.2,5.6C18.3,56.4,21.5,59.4,24.9,62.5
			 M124.9,75.4c-4.1-3.7-7.3-6.6-10.7-9.7c-5,4.1-10.1,7.3-16.4,7.5c2,2.5,3.6,4.7,5.4,6.7c0.5,0.5,1.6,1.1,2.2,0.9
			C111.6,79.3,117.8,77.5,124.9,75.4 M51.8,117.4c5.2-4.9,9.7-9.1,14-13.3c0.6-0.6,1.2-1.9,1-2.5c-1-2.8-2.3-5.5-3.3-8
			c-2.1,1.9-4.1,4.1-6.5,5.7c-2.5,1.7-5.3,2.9-8.3,4.5C49.7,108,50.6,112.2,51.8,117.4 M22.9,64.2c-3.2-2.9-6.3-5.4-9.2-8.2
			c-3-2.9-2.7-4.9,1.2-6.3c6-2.3,12.1-4.4,18.3-6.6c-0.8-4.3-1.8-8.9-2.6-13.6c-0.4-2.2-0.8-4.4-0.9-6.7c-0.2-2.7,1.2-3.9,3.8-3.2
			c4.2,1.2,8.4,2.6,12.7,3.9c0.8-3.9,1.6-7.8,2.5-11.6c1.1-4.3,2.8-4.9,6.2-2.1c5,4.1,9.8,8.2,14.7,12.3c4.7-4,9.6-8.1,14.5-12.2
			c3.3-2.7,5.3-2.1,6.4,2c1,3.8,1.7,7.7,2.5,11.7c4-1.3,7.9-2.7,11.8-3.7c3.9-1.1,5.3,0,4.6,4.1c-0.9,5.9-2.3,11.8-3.4,17.7
			c-0.1,0.5-0.2,1-0.3,1.3c6.1,2.2,12,4.3,17.9,6.4c4.6,1.7,4.9,3.5,1.4,7c-1.4,1.3-2.9,2.6-4.3,3.9c-1.4,1.2-2.8,2.4-4.4,3.7
			c3,2.6,5.9,5.1,8.7,7.7c3.6,3.4,3.2,5.3-1.4,7c-5.8,2.2-11.7,4.2-17.9,6.4c0.5,1.9,1.1,4.1,1.5,6.4c0.8,4.2,1.6,8.4,2.2,12.7
			c0.5,4.1-0.7,5.2-4.7,4.1c-3.8-1-7.6-2.4-11.8-3.8c-0.7,3.3-1.4,6.5-2.1,9.7c-0.2,0.9-0.3,1.8-0.6,2.7c-1.1,3.4-2.9,4-5.7,1.7
			c-5.1-4.2-10.1-8.5-15.1-12.6c-4.8,4-9.7,8.2-14.6,12.3c-3.4,2.8-5.2,2.2-6.2-2c-1-3.8-1.7-7.7-2.6-11.8
			c-3.7,1.2-7.2,2.5-10.8,3.6c-4.9,1.4-6.3,0.2-5.4-4.9c1-6.1,2.2-12.2,3.3-18.1c-5.8-2.1-11.8-4.1-17.7-6.3
			C11,77.1,10.6,75.3,14,72c1.4-1.4,2.9-2.6,4.3-3.9C19.8,66.8,21.2,65.6,22.9,64.2"/>
		<path class="st1" d="M172.4,113v0.3h6.8v4.5c-1.6,1.3-3.7,1.9-5.7,1.9c-5.6,0-8.4-3.4-8.4-7.5v0v0v-0.1c0-3.9,2.8-7.5,8.4-7.5
			c2.2,0,4.5,0.7,6.1,2.2l0.2,0.2l1-1l0.2-0.2l-0.2-0.2c-2-1.8-4.7-2.7-7.3-2.7c-3,0-5.6,0.9-7.5,2.5c-1.8,1.6-2.9,4-2.9,6.8v0.1
			c0,2.5,0.9,4.8,2.6,6.5c1.7,1.7,4.3,2.8,7.7,2.8c3,0,5.5-1,7.6-2.9l0.1-0.1v-7h-8.8V113z"/>
	</g>
	<polygon class="st1" points="190.1,103.1 190.1,121.3 204.5,121.3 204.5,119.7 204.5,119.5 192.1,119.5 192.1,113 203.6,113 
		203.6,111.5 203.6,111.3 192.1,111.3 192.1,104.9 204.2,104.9 204.2,103.4 204.2,103.1 	"/>
	<polygon class="st1" points="227.3,103.1 227.1,103.1 227.1,117.3 214.3,103.1 213.5,103.1 213.2,103.1 213.2,103.4 213.2,121.3 
		215,121.3 215.3,121.3 215.3,107.1 228.1,121.3 228.8,121.3 229.1,121.3 229.1,103.1 	"/>
	<polygon class="st1" points="238.2,103.1 238.2,121.3 252.6,121.3 252.6,119.7 252.6,119.5 240.3,119.5 240.3,113 251.7,113 
		251.7,111.5 251.7,111.3 240.3,111.3 240.3,104.9 252.3,104.9 252.3,103.4 252.3,103.1 	"/>
	<g>
		<path class="st1" d="M262.8,104.9h6.9c3.1,0,4.5,2,4.5,3.9v0c0,1.2-0.4,2.2-1.1,2.9c-0.7,0.7-1.9,1.1-3.6,1.1h-6.7V104.9z
			 M274.7,112.9c1.1-1,1.7-2.4,1.7-3.9v-0.1v0c0-2.9-2.3-5.8-6.7-5.8h-8.9v18.2h1.8h0.3v-6.7h5l6.8,6.7h2.1h0.6l-7-6.8
			C272.2,114.4,273.7,113.8,274.7,112.9"/>
	</g>
	<path class="st1" d="M292.1,105.3l4.8,9.9h-9.7L292.1,105.3z M291.3,103.1h-0.2l-9.1,18.2h2h0.2l2.1-4.3h11.4l2.2,4.3h1.8h0.4
		l-0.2-0.4l-8.9-17.8H291.3z"/>
	<polygon class="st1" points="309.9,103.1 309.6,103.1 309.6,103.4 309.6,121.3 322.7,121.3 322.7,119.8 322.7,119.5 311.6,119.5 
		311.6,103.1 	"/>
	<g>
		<path class="st1" d="M358.3,112.2c0,3.6-2.6,7.3-8.2,7.3h-4.9v-14.5h4.9c5.5,0,8.1,3.5,8.2,7.1v0L358.3,112.2z M350.1,103.1h-6.9
			v18.2h6.9c3.4,0,6-1.1,7.7-2.8c1.7-1.7,2.5-4,2.5-6.2l0-0.2C360.2,107.5,356.9,103.1,350.1,103.1"/>
	</g>
	<polygon class="st1" points="368.5,103.1 368.5,121.3 382.9,121.3 382.9,119.7 382.9,119.5 370.5,119.5 370.5,113 382,113 
		382,111.5 382,111.3 370.5,111.3 370.5,104.9 382.6,104.9 382.6,103.4 382.6,103.1 	"/>
	<polygon class="st1" points="405.7,103.1 405.5,103.1 405.5,117.3 392.7,103.1 391.9,103.1 391.7,103.1 391.7,103.4 391.7,121.3 
		393.4,121.3 393.7,121.3 393.7,107.1 406.5,121.3 407.2,121.3 407.5,121.3 407.5,103.1 	"/>
	<polygon class="st1" points="415.2,103.2 415.2,104.6 415.2,104.9 422.2,104.9 422.2,121.3 422.5,121.3 424,121.3 424.3,121.3 
		424.3,104.9 431.4,104.9 431.4,103.4 431.4,103.2 	"/>
	<polygon class="st1" points="440.8,103.1 439.3,103.1 439,103.1 439,121.3 440.8,121.3 441,121.3 441,103.1 	"/>
	<g>
		<path class="st1" d="M463.2,112.4c-1.5-0.7-3.4-1-5.3-1.4h0c-1.7-0.3-3.1-0.5-4.2-1c-1-0.5-1.6-1.1-1.6-2.1c0-1.3,0.8-2.1,2-2.6
			c1.1-0.5,2.6-0.7,3.7-0.7c2.2,0,4.4,0.3,5.7,2.3l0.1,0.2l1.4-0.8l0.3-0.1l-0.2-0.2c-2-2.7-4.6-3.1-7.4-3.1c-1.6,0-3.5,0.3-5,1.1
			c-1.5,0.8-2.7,2.1-2.7,4l0,0.1c0,1.7,1,2.8,2.4,3.5c1.4,0.7,3.2,1,5,1.3c1.6,0.3,3.2,0.6,4.4,1.1c1.2,0.5,1.9,1.2,1.9,2.4v0
			c0,1.4-0.9,2.3-2.1,2.8c-1.2,0.5-2.7,0.7-3.9,0.7c-2.3,0-5.4-1.1-6.5-3.1l-0.1-0.2l-1.6,0.7l-0.3,0.1l0.1,0.2c1.6,2.8,5.2,4,8.3,4
			c1.7,0,3.6-0.2,5.2-1c1.6-0.8,2.8-2.1,2.8-4.2v0C465.8,114.4,464.7,113.2,463.2,112.4"/>
	</g>
	<polygon class="st1" points="470.5,103.2 470.5,104.6 470.5,104.9 477.6,104.9 477.6,121.3 477.8,121.3 479.4,121.3 479.6,121.3 
		479.6,104.9 486.7,104.9 486.7,103.4 486.7,103.2 	"/>
	<g>
		<path class="st1" d="M496.4,104.9h6.9c3.1,0,4.5,2,4.5,3.9v0.1c0,1.2-0.4,2.2-1.1,2.9c-0.7,0.7-1.9,1.1-3.6,1.1h-6.7V104.9z
			 M508.3,112.9c1.1-1,1.7-2.4,1.7-3.9v-0.1v0c0-2.9-2.3-5.8-6.7-5.8h-8.9v18.2h1.8h0.3v-6.7h5l6.8,6.7h2.1h0.6l-7-6.8
			C505.8,114.4,507.3,113.8,508.3,112.9"/>
	</g>
	<polygon class="st1" points="531.5,103.1 531.4,103.1 524.8,112.2 518.3,103.1 516.4,103.1 516.2,103.1 516.2,103.4 516.2,103.5 
		523.8,114.1 523.8,121.3 524.1,121.3 525.6,121.3 525.8,121.3 525.8,114.1 533.5,103.5 533.5,103.4 533.5,103.1 	"/>
</g>
<g>
	<path class="st0" d="M34.8,148.8v-13.1h1.8v12.5c0,0.5,0,0.9,0,1.2c0,0.3-0.1,0.7-0.1,1c-0.1,0.3-0.1,0.6-0.3,0.8
		c-0.1,0.2-0.3,0.4-0.5,0.6c-0.2,0.2-0.4,0.4-0.7,0.5c-0.3,0.1-0.6,0.2-1,0.3s-0.8,0.1-1.3,0.1h-0.3l-0.2-1.4h0.7
		c0.4,0,0.7,0,0.9-0.1c0.2-0.1,0.4-0.2,0.6-0.3s0.2-0.3,0.3-0.6c0.1-0.2,0.1-0.5,0.1-0.7C34.8,149.4,34.8,149.2,34.8,148.8z"/>
	<path class="st0" d="M49.1,145.1c0,1.7-0.5,3.1-1.4,4.1c-0.9,1.1-2.2,1.6-3.8,1.6c-1.5,0-2.8-0.5-3.7-1.6c-0.9-1.1-1.4-2.4-1.4-4.1
		c0-1.7,0.5-3.1,1.4-4.1c0.9-1.1,2.2-1.6,3.8-1.6c1.6,0,2.8,0.5,3.7,1.6C48.6,142.1,49.1,143.4,49.1,145.1z M40.6,145.2
		c0,1.3,0.3,2.3,0.9,3.1c0.6,0.8,1.4,1.2,2.5,1.2c1.1,0,1.9-0.4,2.5-1.2c0.6-0.8,0.8-1.8,0.8-3.1c0-1.3-0.3-2.4-0.8-3.2
		c-0.5-0.8-1.4-1.2-2.5-1.2c-1.1,0-1.9,0.4-2.5,1.2C40.9,142.8,40.6,143.8,40.6,145.2z"/>
	<path class="st0" d="M58.8,150.6V144c0-1.1-0.2-1.9-0.5-2.4c-0.3-0.5-1-0.7-1.8-0.7c-0.8,0-1.5,0.2-2.1,0.6c-0.6,0.4-1,1-1.1,1.6
		c-0.1,0.5-0.1,1.1-0.1,1.7v5.8h-1.7v-15.2l1.7-0.1v4.5c0,0.4,0,0.8,0,1.4c0.9-1.2,2.2-1.7,3.7-1.7c2.4,0,3.7,1.4,3.7,4.3v6.9H58.8z
		"/>
	<path class="st0" d="M62.5,150.6v-11h1.4l0.2,1.6c0.4-0.5,1-1,1.6-1.3s1.3-0.5,2.1-0.5c1.3,0,2.2,0.4,2.8,1.1s0.9,1.8,0.9,3.3v6.8
		h-1.7c0-4.4,0-6.7,0-7.1c0-0.9-0.2-1.6-0.6-2s-0.9-0.6-1.8-0.6c-0.9,0-1.6,0.2-2.1,0.6c-0.6,0.4-0.9,0.9-1.1,1.6
		c-0.1,0.4-0.1,1-0.1,1.5v6H62.5z"/>
	<path class="st0" d="M84.4,150.6h-1.7v-13.2h-4.5v-1.5h10.8v1.5h-4.5V150.6z"/>
	<path class="st0" d="M91.1,150.7c-0.3,0-0.6-0.1-0.8-0.3c-0.2-0.2-0.3-0.5-0.3-0.7c0-0.3,0.1-0.5,0.3-0.7c0.2-0.2,0.4-0.3,0.8-0.3
		s0.6,0.1,0.8,0.3c0.2,0.2,0.3,0.5,0.3,0.7c0,0.3-0.1,0.5-0.3,0.7S91.4,150.7,91.1,150.7z"/>
	<path class="st0" d="M106.3,137.1c-1.1,0-2.1,0.3-2.9,0.8s-1.4,1.3-1.8,2.2c-0.4,0.9-0.6,2-0.6,3.1c0,0.9,0.1,1.7,0.3,2.4
		c0.2,0.7,0.5,1.4,1,1.9c0.4,0.5,1,1,1.7,1.3c0.7,0.3,1.5,0.5,2.4,0.5c1.1,0,2.3-0.3,3.5-0.9l0.3,1.5c-1,0.6-2.3,0.9-4,0.9
		c-1.1,0-2.1-0.2-3-0.6c-0.9-0.4-1.6-0.9-2.2-1.6c-0.6-0.7-1-1.5-1.3-2.4c-0.3-0.9-0.4-2-0.4-3.1c0-1.1,0.2-2.1,0.5-3.1
		c0.3-0.9,0.8-1.7,1.4-2.4s1.3-1.2,2.2-1.6s1.9-0.6,3-0.6c1.7,0,3.1,0.4,4.2,1.1l-0.7,1.4C108.7,137.4,107.5,137.1,106.3,137.1z"/>
	<path class="st0" d="M119.1,150.6c-0.1-0.4-0.2-0.9-0.3-1.4c-0.6,0.6-1.2,1-1.7,1.3c-0.5,0.2-1.2,0.3-1.9,0.3c-1,0-1.8-0.3-2.5-0.8
		s-0.9-1.3-0.9-2.3c0-1.1,0.4-1.9,1.3-2.5c0.8-0.5,2.1-0.9,3.7-1c0.2,0,0.6,0,1-0.1c0.4,0,0.8-0.1,1-0.1v-1c0-0.8-0.2-1.3-0.5-1.7
		c-0.4-0.4-0.9-0.6-1.7-0.6c-1.1,0-2.2,0.3-3.3,0.8c0-0.1-0.1-0.3-0.3-0.7s-0.2-0.6-0.2-0.6c0.5-0.3,1.1-0.5,1.7-0.7
		c0.7-0.2,1.3-0.2,2-0.2c1.4,0,2.3,0.3,3,0.9s0.9,1.6,0.9,3v7.2H119.1z M115.5,149.5c0.8,0,1.5-0.2,2.1-0.7c0.6-0.4,1-1,1.2-1.8
		v-1.8c0,0-0.2,0-0.6,0c-0.4,0-0.6,0.1-0.7,0.1c-1.4,0.1-2.5,0.4-3,0.7c-0.6,0.3-0.9,0.9-0.9,1.7c0,0.6,0.2,1,0.5,1.3
		C114.4,149.4,114.9,149.5,115.5,149.5z"/>
	<path class="st0" d="M128.2,139.6c0.3,0,0.6,0,0.8,0.1l-0.1,1.5c-0.3-0.1-0.6-0.1-0.8-0.1c-0.9,0-1.7,0.3-2.3,1
		c-0.6,0.6-0.9,1.5-0.9,2.4v6.2h-1.7c0-6.7,0-10.4,0-11h1.4l0.2,2c0.4-0.6,0.9-1.1,1.4-1.5C126.9,139.8,127.6,139.6,128.2,139.6z"/>
	<path class="st0" d="M133.7,150.8c-1.1,0-1.8-0.3-2.3-0.9s-0.7-1.6-0.7-3v-11.6l1.7-0.1v11c0,0.5,0,0.8,0,1.1c0,0.3,0,0.5,0.1,0.8
		c0,0.3,0.1,0.5,0.2,0.6s0.2,0.3,0.3,0.4c0.1,0.1,0.3,0.2,0.5,0.2c0.2,0,0.4,0.1,0.7,0.1c0.2,0,0.6,0,1.3-0.1l0.1,1.3
		C134.7,150.8,134.2,150.8,133.7,150.8z"/>
	<path class="st0" d="M139.7,150.8c-0.7,0-1.4-0.1-2.1-0.2c-0.6-0.2-1.1-0.4-1.5-0.6l0.2-1.4c1.1,0.6,2.2,0.9,3.3,0.9
		c1.6,0,2.5-0.6,2.5-1.7c0-0.5-0.2-0.9-0.5-1.1c-0.3-0.3-1-0.6-2-0.9l-0.8-0.3c-1-0.3-1.6-0.7-2.1-1.2c-0.4-0.5-0.6-1.1-0.6-1.8
		c0-0.9,0.3-1.6,1-2.1c0.7-0.6,1.6-0.8,2.8-0.8c1.2,0,2.4,0.2,3.4,0.7l-0.5,1.3c-1-0.4-2-0.6-2.9-0.6c-0.7,0-1.2,0.1-1.6,0.4
		c-0.4,0.3-0.6,0.7-0.6,1.2c0,0.4,0.1,0.8,0.4,1s0.9,0.5,1.7,0.8c0.2,0.1,0.5,0.2,0.8,0.3c1.1,0.4,1.9,0.8,2.3,1.3
		c0.5,0.5,0.7,1.1,0.7,2c0,1-0.4,1.8-1.1,2.4C141.9,150.6,140.9,150.8,139.7,150.8z"/>
	<path class="st0" d="M155.6,145.1c0,1.7-0.5,3.1-1.4,4.1c-0.9,1.1-2.2,1.6-3.8,1.6c-1.5,0-2.8-0.5-3.7-1.6
		c-0.9-1.1-1.4-2.4-1.4-4.1c0-1.7,0.5-3.1,1.4-4.1c0.9-1.1,2.2-1.6,3.8-1.6c1.6,0,2.8,0.5,3.7,1.6
		C155.1,142.1,155.6,143.4,155.6,145.1z M147.2,145.2c0,1.3,0.3,2.3,0.9,3.1c0.6,0.8,1.4,1.2,2.5,1.2c1.1,0,1.9-0.4,2.5-1.2
		c0.6-0.8,0.8-1.8,0.8-3.1c0-1.3-0.3-2.4-0.8-3.2c-0.5-0.8-1.4-1.2-2.5-1.2c-1.1,0-1.9,0.4-2.5,1.2
		C147.5,142.8,147.2,143.8,147.2,145.2z"/>
	<path class="st0" d="M158,150.6v-11h1.4l0.2,1.6c0.4-0.5,1-1,1.6-1.3s1.3-0.5,2.1-0.5c1.3,0,2.2,0.4,2.8,1.1s0.9,1.8,0.9,3.3v6.8
		h-1.7c0-4.4,0-6.7,0-7.1c0-0.9-0.2-1.6-0.6-2s-0.9-0.6-1.8-0.6c-0.9,0-1.6,0.2-2.1,0.6c-0.6,0.4-0.9,0.9-1.1,1.6
		c-0.1,0.4-0.1,1-0.1,1.5v6H158z"/>
	<path class="st0" d="M169.2,152.8c0-0.2,0.1-0.6,0.1-1.2c0.1-0.7,0.1-1.2,0.2-1.7c0-0.5,0.1-0.8,0.1-1.2h1.6v0.4
		c-0.3,1.1-0.6,2.3-1.2,3.7H169.2z"/>
	<path class="st0" d="M179.7,148.8v-13.1h1.8v12.5c0,0.5,0,0.9,0,1.2c0,0.3-0.1,0.7-0.1,1c-0.1,0.3-0.1,0.6-0.3,0.8
		c-0.1,0.2-0.3,0.4-0.5,0.6c-0.2,0.2-0.4,0.4-0.7,0.5c-0.3,0.1-0.6,0.2-1,0.3s-0.8,0.1-1.3,0.1h-0.3l-0.2-1.4h0.7
		c0.4,0,0.7,0,0.9-0.1c0.2-0.1,0.4-0.2,0.6-0.3s0.2-0.3,0.3-0.6c0.1-0.2,0.1-0.5,0.1-0.7C179.7,149.4,179.7,149.2,179.7,148.8z"/>
	<path class="st0" d="M189.3,139.6c0.3,0,0.6,0,0.8,0.1l-0.1,1.5c-0.3-0.1-0.6-0.1-0.8-0.1c-0.9,0-1.7,0.3-2.3,1
		c-0.6,0.6-0.9,1.5-0.9,2.4v6.2h-1.7c0-6.7,0-10.4,0-11h1.4l0.2,2c0.4-0.6,0.9-1.1,1.4-1.5C188,139.8,188.7,139.6,189.3,139.6z"/>
	<path class="st0" d="M192.5,150.7c-0.3,0-0.6-0.1-0.8-0.3c-0.2-0.2-0.3-0.5-0.3-0.7c0-0.3,0.1-0.5,0.3-0.7c0.2-0.2,0.4-0.3,0.8-0.3
		s0.6,0.1,0.8,0.3c0.2,0.2,0.3,0.5,0.3,0.7c0,0.3-0.1,0.5-0.3,0.7S192.8,150.7,192.5,150.7z"/>
	<path class="st0" d="M195.2,152.8c0-0.2,0.1-0.6,0.1-1.2c0.1-0.7,0.1-1.2,0.2-1.7c0-0.5,0.1-0.8,0.1-1.2h1.6v0.4
		c-0.3,1.1-0.6,2.3-1.2,3.7H195.2z"/>
	<path class="st0" d="M213.6,144.7c0,1.9-0.5,3.4-1.6,4.4c-1.1,1-2.6,1.5-4.6,1.5h-3.5v-11.8h3.3c1,0,1.9,0.1,2.6,0.3
		c0.8,0.2,1.5,0.6,2,1.1c0.6,0.5,1,1.1,1.3,1.8S213.6,143.7,213.6,144.7z M212.1,144.7c0-1.7-0.4-2.9-1.3-3.6s-2.1-1.1-3.7-1.1h-1.9
		v9.4h2.1c1.6,0,2.7-0.4,3.6-1.2C211.7,147.5,212.1,146.3,212.1,144.7z"/>
	<path class="st0" d="M221.1,149.9l-3.6-8.4l-0.3-0.8l0.1,2.9v7.1h-1.3v-11.8h1.8l4.1,9.4l4.1-9.4h1.7v11.8h-1.3v-7.1l0.1-2.8
		l-0.3,0.8l-3.6,8.4H221.1z"/>
	<path class="st0" d="M240.1,144.7c0,1.9-0.5,3.4-1.6,4.4c-1.1,1-2.6,1.5-4.6,1.5h-3.5v-11.8h3.3c1,0,1.9,0.1,2.6,0.3
		c0.8,0.2,1.5,0.6,2,1.1c0.6,0.5,1,1.1,1.3,1.8S240.1,143.7,240.1,144.7z M238.6,144.7c0-1.7-0.4-2.9-1.3-3.6s-2.1-1.1-3.7-1.1h-1.9
		v9.4h2.1c1.6,0,2.7-0.4,3.6-1.2C238.2,147.5,238.6,146.3,238.6,144.7z"/>
	<path class="st0" d="M271,150.6l-4.5-14.8h1.8l3.7,12.7l3.7-12.4h1.9l3.5,12.5l3.7-12.7h1.8l-4.5,14.8h-1.9l-3.6-12.4l-3.8,12.4
		H271z"/>
	<path class="st0" d="M290,135.7v2h-1.7v-2H290z M290,139.7v11h-1.7v-11H290z"/>
	<path class="st0" d="M296.1,150.8c-1.1,0-1.8-0.3-2.3-0.9s-0.7-1.6-0.7-3v-11.6l1.7-0.1v11c0,0.5,0,0.8,0,1.1c0,0.3,0,0.5,0.1,0.8
		c0,0.3,0.1,0.5,0.2,0.6s0.2,0.3,0.3,0.4c0.1,0.1,0.3,0.2,0.5,0.2c0.2,0,0.4,0.1,0.7,0.1c0.2,0,0.6,0,1.3-0.1l0.1,1.3
		C297.1,150.8,296.6,150.8,296.1,150.8z"/>
	<path class="st0" d="M301.8,150.8c-1.1,0-1.8-0.3-2.3-0.9s-0.7-1.6-0.7-3v-11.6l1.7-0.1v11c0,0.5,0,0.8,0,1.1c0,0.3,0,0.5,0.1,0.8
		c0,0.3,0.1,0.5,0.2,0.6s0.2,0.3,0.3,0.4c0.1,0.1,0.3,0.2,0.5,0.2c0.2,0,0.4,0.1,0.7,0.1c0.2,0,0.6,0,1.3-0.1l0.1,1.3
		C302.8,150.8,302.2,150.8,301.8,150.8z"/>
	<path class="st0" d="M306.5,135.7v2h-1.7v-2H306.5z M306.5,139.7v11h-1.7v-11H306.5z"/>
	<path class="st0" d="M312.9,150.8c-0.7,0-1.4-0.1-2.1-0.2c-0.6-0.2-1.1-0.4-1.5-0.6l0.2-1.4c1.1,0.6,2.2,0.9,3.3,0.9
		c1.6,0,2.5-0.6,2.5-1.7c0-0.5-0.2-0.9-0.5-1.1c-0.3-0.3-1-0.6-2-0.9l-0.8-0.3c-1-0.3-1.6-0.7-2.1-1.2c-0.4-0.5-0.6-1.1-0.6-1.8
		c0-0.9,0.3-1.6,1-2.1c0.7-0.6,1.6-0.8,2.8-0.8c1.2,0,2.4,0.2,3.4,0.7l-0.5,1.3c-1-0.4-2-0.6-2.9-0.6c-0.7,0-1.2,0.1-1.6,0.4
		c-0.4,0.3-0.6,0.7-0.6,1.2c0,0.4,0.1,0.8,0.4,1s0.9,0.5,1.7,0.8c0.2,0.1,0.5,0.2,0.8,0.3c1.1,0.4,1.9,0.8,2.3,1.3s0.7,1.1,0.7,2
		c0,1-0.4,1.8-1.1,2.4C315,150.6,314.1,150.8,312.9,150.8z"/>
	<path class="st0" d="M325.1,148.8v-13.1h1.8v12.5c0,0.5,0,0.9,0,1.2c0,0.3-0.1,0.7-0.1,1c-0.1,0.3-0.1,0.6-0.3,0.8
		c-0.1,0.2-0.3,0.4-0.5,0.6c-0.2,0.2-0.4,0.4-0.7,0.5c-0.3,0.1-0.6,0.2-1,0.3c-0.4,0.1-0.8,0.1-1.3,0.1h-0.3l-0.2-1.4h0.7
		c0.4,0,0.7,0,0.9-0.1c0.2-0.1,0.4-0.2,0.6-0.3c0.1-0.1,0.2-0.3,0.3-0.6c0.1-0.2,0.1-0.5,0.1-0.7C325,149.4,325.1,149.2,325.1,148.8
		z"/>
	<path class="st0" d="M330.4,150.7c-0.3,0-0.6-0.1-0.8-0.3c-0.2-0.2-0.3-0.5-0.3-0.7c0-0.3,0.1-0.5,0.3-0.7c0.2-0.2,0.4-0.3,0.8-0.3
		s0.6,0.1,0.8,0.3c0.2,0.2,0.3,0.5,0.3,0.7c0,0.3-0.1,0.5-0.3,0.7C331,150.6,330.7,150.7,330.4,150.7z"/>
	<path class="st0" d="M345.5,149.7l-4.5-10.5l-0.4-1l0.1,3.6v8.8h-1.6v-14.8h2.2l5.1,11.8l5.1-11.8h2.2v14.8h-1.7v-8.9l0.1-3.5
		l-0.4,1l-4.5,10.5H345.5z"/>
	<path class="st0" d="M361.5,150.8c-1.6,0-2.8-0.5-3.8-1.5s-1.4-2.4-1.4-4.2c0-1.7,0.4-3.1,1.3-4.1c0.9-1.1,2-1.6,3.5-1.6
		c1.4,0,2.4,0.5,3.2,1.4c0.8,0.9,1.2,2.2,1.2,3.7c0,0.1,0,0.2,0,0.4c0,0.2,0,0.4,0,0.5h-7.5c0,1.2,0.3,2.2,1,2.9
		c0.6,0.7,1.5,1,2.5,1c1.2,0,2.3-0.3,3.5-0.9l0.3,1.3C364.2,150.5,363,150.8,361.5,150.8z M363.2,141.7c-0.5-0.6-1.2-0.9-2-0.9
		c-0.9,0-1.5,0.3-2.1,0.9s-0.9,1.4-0.9,2.5h5.8C364,143.1,363.7,142.3,363.2,141.7z"/>
	<path class="st0" d="M372.9,139.6c0.3,0,0.6,0,0.8,0.1l-0.1,1.5c-0.3-0.1-0.6-0.1-0.8-0.1c-0.9,0-1.7,0.3-2.3,1
		c-0.6,0.6-0.9,1.5-0.9,2.4v6.2H368c0-6.7,0-10.4,0-11h1.4l0.2,2c0.4-0.6,0.9-1.1,1.4-1.5C371.6,139.8,372.2,139.6,372.9,139.6z"/>
	<path class="st0" d="M377.4,135.7v2h-1.7v-2H377.4z M377.4,139.7v11h-1.7v-11H377.4z"/>
	<path class="st0" d="M390,150.6c-1.5-4.9-2.5-8-2.9-9.2c-0.2,0.7-0.4,1.5-0.7,2.4c-0.3,0.9-0.5,1.6-0.7,2.2
		c-0.2,0.6-0.5,1.4-0.8,2.4c-0.3,1-0.6,1.7-0.7,2.2h-1.8l-3.1-11h1.7l2.3,9c0.3-1.1,1.3-4.1,2.9-9h1.9c1.6,5,2.5,8,2.8,8.9l2.3-8.9
		h1.7l-3.2,11H390z"/>
	<path class="st0" d="M401.1,150.8c-1.6,0-2.8-0.5-3.8-1.5s-1.4-2.4-1.4-4.2c0-1.7,0.4-3.1,1.3-4.1c0.9-1.1,2-1.6,3.5-1.6
		c1.4,0,2.4,0.5,3.2,1.4c0.8,0.9,1.2,2.2,1.2,3.7c0,0.1,0,0.2,0,0.4c0,0.2,0,0.4,0,0.5h-7.5c0,1.2,0.3,2.2,1,2.9
		c0.6,0.7,1.5,1,2.5,1c1.2,0,2.3-0.3,3.5-0.9l0.3,1.3C403.8,150.5,402.5,150.8,401.1,150.8z M402.8,141.7c-0.5-0.6-1.2-0.9-2-0.9
		c-0.9,0-1.5,0.3-2.1,0.9s-0.9,1.4-0.9,2.5h5.8C403.5,143.1,403.3,142.3,402.8,141.7z"/>
	<path class="st0" d="M411,150.8c-1.1,0-1.8-0.3-2.3-0.8c-0.5-0.5-0.7-1.4-0.7-2.5v-6.6h-1.6l0.1-1.1l1.5-0.1l0.6-2.5l1.1,0v2.5h3
		v1.2h-3v6.3c0,0.8,0.1,1.4,0.4,1.8c0.3,0.3,0.7,0.5,1.3,0.5c0.2,0,0.7-0.1,1.4-0.2l0.1,1.3C412,150.8,411.4,150.8,411,150.8z"/>
	<path class="st0" d="M422,150.6V144c0-1.1-0.2-1.9-0.5-2.4s-1-0.7-1.8-0.7c-0.8,0-1.5,0.2-2.1,0.6c-0.6,0.4-1,1-1.1,1.6
		c-0.1,0.5-0.1,1.1-0.1,1.7v5.8h-1.7v-15.2l1.7-0.1v4.5c0,0.4,0,0.8,0,1.4c0.9-1.2,2.2-1.7,3.7-1.7c2.4,0,3.7,1.4,3.7,4.3v6.9H422z"
		/>
	<path class="st0" d="M430.4,150.8c-1.6,0-2.8-0.5-3.8-1.5s-1.4-2.4-1.4-4.2c0-1.7,0.4-3.1,1.3-4.1c0.9-1.1,2-1.6,3.5-1.6
		c1.4,0,2.4,0.5,3.2,1.4c0.8,0.9,1.2,2.2,1.2,3.7c0,0.1,0,0.2,0,0.4c0,0.2,0,0.4,0,0.5h-7.5c0,1.2,0.3,2.2,1,2.9
		c0.6,0.7,1.5,1,2.5,1c1.2,0,2.3-0.3,3.5-0.9l0.3,1.3C433,150.5,431.8,150.8,430.4,150.8z M432,141.7c-0.5-0.6-1.2-0.9-2-0.9
		c-0.9,0-1.5,0.3-2.1,0.9s-0.9,1.4-0.9,2.5h5.8C432.8,143.1,432.5,142.3,432,141.7z"/>
	<path class="st0" d="M441.7,139.6c0.3,0,0.6,0,0.8,0.1l-0.1,1.5c-0.3-0.1-0.6-0.1-0.8-0.1c-0.9,0-1.7,0.3-2.3,1
		c-0.6,0.6-0.9,1.5-0.9,2.4v6.2h-1.7c0-6.7,0-10.4,0-11h1.4l0.2,2c0.4-0.6,0.9-1.1,1.4-1.5C440.4,139.8,441,139.6,441.7,139.6z"/>
	<path class="st0" d="M443.7,152.8c0-0.2,0.1-0.6,0.1-1.2s0.1-1.2,0.2-1.7c0-0.5,0.1-0.8,0.1-1.2h1.6v0.4c-0.3,1.1-0.6,2.3-1.1,3.7
		H443.7z"/>
	<path class="st0" d="M462,144.7c0,1.9-0.5,3.4-1.6,4.4s-2.6,1.5-4.6,1.5h-3.5v-11.8h3.3c1,0,1.9,0.1,2.6,0.3c0.8,0.2,1.5,0.6,2,1.1
		c0.6,0.5,1,1.1,1.3,1.8S462,143.7,462,144.7z M460.5,144.7c0-1.7-0.4-2.9-1.3-3.6c-0.9-0.8-2.1-1.1-3.7-1.1h-1.9v9.4h2.1
		c1.6,0,2.7-0.4,3.6-1.2C460.1,147.5,460.5,146.3,460.5,144.7z"/>
	<path class="st0" d="M469.5,149.9l-3.6-8.4l-0.3-0.8l0.1,2.9v7.1h-1.3v-11.8h1.8l4.1,9.4l4.1-9.4h1.7v11.8h-1.3v-7.1l0.1-2.8
		l-0.3,0.8l-3.6,8.4H469.5z"/>
	<path class="st0" d="M488.5,144.7c0,1.9-0.5,3.4-1.6,4.4s-2.6,1.5-4.6,1.5h-3.5v-11.8h3.3c1,0,1.9,0.1,2.6,0.3
		c0.8,0.2,1.5,0.6,2,1.1c0.6,0.5,1,1.1,1.3,1.8S488.5,143.7,488.5,144.7z M487.1,144.7c0-1.7-0.4-2.9-1.3-3.6
		c-0.9-0.8-2.1-1.1-3.7-1.1h-1.9v9.4h2.1c1.6,0,2.7-0.4,3.6-1.2C486.7,147.5,487.1,146.3,487.1,144.7z"/>
	<path class="st0" d="M489.3,152.8c0-0.2,0.1-0.6,0.1-1.2s0.1-1.2,0.2-1.7c0-0.5,0.1-0.8,0.1-1.2h1.6v0.4c-0.3,1.1-0.6,2.3-1.1,3.7
		H489.3z"/>
	<path class="st0" d="M499.4,150.6H498v-11.8h6.6l-0.1,1.2h-5.1v4.1h4.9v1.2h-4.9V150.6z"/>
	<path class="st0" d="M513.5,150.6l-1.4-3.7h-4.7l-1.4,3.7h-1.4l4.5-11.8h1.4l4.4,11.8H513.5z M511.7,145.7
		c-1.1-3.3-1.7-5.1-1.9-5.5l-1.9,5.5H511.7z"/>
	<path class="st0" d="M521.4,150.8c-0.9,0-1.7-0.2-2.4-0.5c-0.7-0.3-1.3-0.7-1.8-1.3c-0.5-0.5-0.8-1.2-1.1-1.9
		c-0.2-0.7-0.4-1.6-0.4-2.4c0-1.2,0.2-2.2,0.7-3.2c0.5-0.9,1.1-1.6,2-2.2s2-0.8,3.2-0.8c1.4,0,2.6,0.3,3.6,0.9l-0.5,1.1
		c-1-0.6-2-0.9-3-0.9c-0.7,0-1.4,0.1-1.9,0.4s-1,0.6-1.4,1c-0.4,0.4-0.6,1-0.8,1.5c-0.2,0.6-0.3,1.2-0.3,2c0,1.5,0.4,2.7,1.1,3.6
		c0.7,0.9,1.9,1.3,3.3,1.3c0.8,0,1.7-0.2,2.5-0.5v-3.4h-2.8l0-1.2h4v5.4c-0.7,0.3-1.3,0.5-1.9,0.7S522.2,150.8,521.4,150.8z"/>
	<path class="st0" d="M537.6,144.7c0,1.9-0.5,3.4-1.6,4.4s-2.6,1.5-4.6,1.5h-3.5v-11.8h3.3c1,0,1.9,0.1,2.6,0.3
		c0.8,0.2,1.5,0.6,2,1.1c0.6,0.5,1,1.1,1.3,1.8S537.6,143.7,537.6,144.7z M536.1,144.7c0-1.7-0.4-2.9-1.3-3.6
		c-0.9-0.8-2.1-1.1-3.7-1.1h-1.9v9.4h2.1c1.6,0,2.7-0.4,3.6-1.2C535.7,147.5,536.1,146.3,536.1,144.7z"/>
</g>
<g>
	<path class="st0" d="M34.8,148.8v-13.1h1.8v12.5c0,0.5,0,0.9,0,1.2c0,0.3-0.1,0.7-0.1,1c-0.1,0.3-0.1,0.6-0.3,0.8
		c-0.1,0.2-0.3,0.4-0.5,0.6c-0.2,0.2-0.4,0.4-0.7,0.5c-0.3,0.1-0.6,0.2-1,0.3s-0.8,0.1-1.3,0.1h-0.3l-0.2-1.4h0.7
		c0.4,0,0.7,0,0.9-0.1c0.2-0.1,0.4-0.2,0.6-0.3s0.2-0.3,0.3-0.6c0.1-0.2,0.1-0.5,0.1-0.7C34.8,149.4,34.8,149.2,34.8,148.8z"/>
	<path class="st0" d="M49.1,145.1c0,1.7-0.5,3.1-1.4,4.1c-0.9,1.1-2.2,1.6-3.8,1.6c-1.5,0-2.8-0.5-3.7-1.6c-0.9-1.1-1.4-2.4-1.4-4.1
		c0-1.7,0.5-3.1,1.4-4.1c0.9-1.1,2.2-1.6,3.8-1.6c1.6,0,2.8,0.5,3.7,1.6C48.6,142.1,49.1,143.4,49.1,145.1z M40.6,145.2
		c0,1.3,0.3,2.3,0.9,3.1c0.6,0.8,1.4,1.2,2.5,1.2c1.1,0,1.9-0.4,2.5-1.2c0.6-0.8,0.8-1.8,0.8-3.1c0-1.3-0.3-2.4-0.8-3.2
		c-0.5-0.8-1.4-1.2-2.5-1.2c-1.1,0-1.9,0.4-2.5,1.2C40.9,142.8,40.6,143.8,40.6,145.2z"/>
	<path class="st0" d="M58.8,150.6V144c0-1.1-0.2-1.9-0.5-2.4c-0.3-0.5-1-0.7-1.8-0.7c-0.8,0-1.5,0.2-2.1,0.6c-0.6,0.4-1,1-1.1,1.6
		c-0.1,0.5-0.1,1.1-0.1,1.7v5.8h-1.7v-15.2l1.7-0.1v4.5c0,0.4,0,0.8,0,1.4c0.9-1.2,2.2-1.7,3.7-1.7c2.4,0,3.7,1.4,3.7,4.3v6.9H58.8z
		"/>
	<path class="st0" d="M62.5,150.6v-11h1.4l0.2,1.6c0.4-0.5,1-1,1.6-1.3s1.3-0.5,2.1-0.5c1.3,0,2.2,0.4,2.8,1.1s0.9,1.8,0.9,3.3v6.8
		h-1.7c0-4.4,0-6.7,0-7.1c0-0.9-0.2-1.6-0.6-2s-0.9-0.6-1.8-0.6c-0.9,0-1.6,0.2-2.1,0.6c-0.6,0.4-0.9,0.9-1.1,1.6
		c-0.1,0.4-0.1,1-0.1,1.5v6H62.5z"/>
	<path class="st0" d="M84.4,150.6h-1.7v-13.2h-4.5v-1.5h10.8v1.5h-4.5V150.6z"/>
	<path class="st0" d="M91.1,150.7c-0.3,0-0.6-0.1-0.8-0.3c-0.2-0.2-0.3-0.5-0.3-0.7c0-0.3,0.1-0.5,0.3-0.7c0.2-0.2,0.4-0.3,0.8-0.3
		s0.6,0.1,0.8,0.3c0.2,0.2,0.3,0.5,0.3,0.7c0,0.3-0.1,0.5-0.3,0.7S91.4,150.7,91.1,150.7z"/>
	<path class="st0" d="M106.3,137.1c-1.1,0-2.1,0.3-2.9,0.8s-1.4,1.3-1.8,2.2c-0.4,0.9-0.6,2-0.6,3.1c0,0.9,0.1,1.7,0.3,2.4
		c0.2,0.7,0.5,1.4,1,1.9c0.4,0.5,1,1,1.7,1.3c0.7,0.3,1.5,0.5,2.4,0.5c1.1,0,2.3-0.3,3.5-0.9l0.3,1.5c-1,0.6-2.3,0.9-4,0.9
		c-1.1,0-2.1-0.2-3-0.6c-0.9-0.4-1.6-0.9-2.2-1.6c-0.6-0.7-1-1.5-1.3-2.4c-0.3-0.9-0.4-2-0.4-3.1c0-1.1,0.2-2.1,0.5-3.1
		c0.3-0.9,0.8-1.7,1.4-2.4s1.3-1.2,2.2-1.6s1.9-0.6,3-0.6c1.7,0,3.1,0.4,4.2,1.1l-0.7,1.4C108.7,137.4,107.5,137.1,106.3,137.1z"/>
	<path class="st0" d="M119.1,150.6c-0.1-0.4-0.2-0.9-0.3-1.4c-0.6,0.6-1.2,1-1.7,1.3c-0.5,0.2-1.2,0.3-1.9,0.3c-1,0-1.8-0.3-2.5-0.8
		s-0.9-1.3-0.9-2.3c0-1.1,0.4-1.9,1.3-2.5c0.8-0.5,2.1-0.9,3.7-1c0.2,0,0.6,0,1-0.1c0.4,0,0.8-0.1,1-0.1v-1c0-0.8-0.2-1.3-0.5-1.7
		c-0.4-0.4-0.9-0.6-1.7-0.6c-1.1,0-2.2,0.3-3.3,0.8c0-0.1-0.1-0.3-0.3-0.7s-0.2-0.6-0.2-0.6c0.5-0.3,1.1-0.5,1.7-0.7
		c0.7-0.2,1.3-0.2,2-0.2c1.4,0,2.3,0.3,3,0.9s0.9,1.6,0.9,3v7.2H119.1z M115.5,149.5c0.8,0,1.5-0.2,2.1-0.7c0.6-0.4,1-1,1.2-1.8
		v-1.8c0,0-0.2,0-0.6,0c-0.4,0-0.6,0.1-0.7,0.1c-1.4,0.1-2.5,0.4-3,0.7c-0.6,0.3-0.9,0.9-0.9,1.7c0,0.6,0.2,1,0.5,1.3
		C114.4,149.4,114.9,149.5,115.5,149.5z"/>
	<path class="st0" d="M128.2,139.6c0.3,0,0.6,0,0.8,0.1l-0.1,1.5c-0.3-0.1-0.6-0.1-0.8-0.1c-0.9,0-1.7,0.3-2.3,1
		c-0.6,0.6-0.9,1.5-0.9,2.4v6.2h-1.7c0-6.7,0-10.4,0-11h1.4l0.2,2c0.4-0.6,0.9-1.1,1.4-1.5C126.9,139.8,127.6,139.6,128.2,139.6z"/>
	<path class="st0" d="M133.7,150.8c-1.1,0-1.8-0.3-2.3-0.9s-0.7-1.6-0.7-3v-11.6l1.7-0.1v11c0,0.5,0,0.8,0,1.1c0,0.3,0,0.5,0.1,0.8
		c0,0.3,0.1,0.5,0.2,0.6s0.2,0.3,0.3,0.4c0.1,0.1,0.3,0.2,0.5,0.2c0.2,0,0.4,0.1,0.7,0.1c0.2,0,0.6,0,1.3-0.1l0.1,1.3
		C134.7,150.8,134.2,150.8,133.7,150.8z"/>
	<path class="st0" d="M139.7,150.8c-0.7,0-1.4-0.1-2.1-0.2c-0.6-0.2-1.1-0.4-1.5-0.6l0.2-1.4c1.1,0.6,2.2,0.9,3.3,0.9
		c1.6,0,2.5-0.6,2.5-1.7c0-0.5-0.2-0.9-0.5-1.1c-0.3-0.3-1-0.6-2-0.9l-0.8-0.3c-1-0.3-1.6-0.7-2.1-1.2c-0.4-0.5-0.6-1.1-0.6-1.8
		c0-0.9,0.3-1.6,1-2.1c0.7-0.6,1.6-0.8,2.8-0.8c1.2,0,2.4,0.2,3.4,0.7l-0.5,1.3c-1-0.4-2-0.6-2.9-0.6c-0.7,0-1.2,0.1-1.6,0.4
		c-0.4,0.3-0.6,0.7-0.6,1.2c0,0.4,0.1,0.8,0.4,1s0.9,0.5,1.7,0.8c0.2,0.1,0.5,0.2,0.8,0.3c1.1,0.4,1.9,0.8,2.3,1.3
		c0.5,0.5,0.7,1.1,0.7,2c0,1-0.4,1.8-1.1,2.4C141.9,150.6,140.9,150.8,139.7,150.8z"/>
	<path class="st0" d="M155.6,145.1c0,1.7-0.5,3.1-1.4,4.1c-0.9,1.1-2.2,1.6-3.8,1.6c-1.5,0-2.8-0.5-3.7-1.6
		c-0.9-1.1-1.4-2.4-1.4-4.1c0-1.7,0.5-3.1,1.4-4.1c0.9-1.1,2.2-1.6,3.8-1.6c1.6,0,2.8,0.5,3.7,1.6
		C155.1,142.1,155.6,143.4,155.6,145.1z M147.2,145.2c0,1.3,0.3,2.3,0.9,3.1c0.6,0.8,1.4,1.2,2.5,1.2c1.1,0,1.9-0.4,2.5-1.2
		c0.6-0.8,0.8-1.8,0.8-3.1c0-1.3-0.3-2.4-0.8-3.2c-0.5-0.8-1.4-1.2-2.5-1.2c-1.1,0-1.9,0.4-2.5,1.2
		C147.5,142.8,147.2,143.8,147.2,145.2z"/>
	<path class="st0" d="M158,150.6v-11h1.4l0.2,1.6c0.4-0.5,1-1,1.6-1.3s1.3-0.5,2.1-0.5c1.3,0,2.2,0.4,2.8,1.1s0.9,1.8,0.9,3.3v6.8
		h-1.7c0-4.4,0-6.7,0-7.1c0-0.9-0.2-1.6-0.6-2s-0.9-0.6-1.8-0.6c-0.9,0-1.6,0.2-2.1,0.6c-0.6,0.4-0.9,0.9-1.1,1.6
		c-0.1,0.4-0.1,1-0.1,1.5v6H158z"/>
	<path class="st0" d="M169.2,152.8c0-0.2,0.1-0.6,0.1-1.2c0.1-0.7,0.1-1.2,0.2-1.7c0-0.5,0.1-0.8,0.1-1.2h1.6v0.4
		c-0.3,1.1-0.6,2.3-1.2,3.7H169.2z"/>
	<path class="st0" d="M179.7,148.8v-13.1h1.8v12.5c0,0.5,0,0.9,0,1.2c0,0.3-0.1,0.7-0.1,1c-0.1,0.3-0.1,0.6-0.3,0.8
		c-0.1,0.2-0.3,0.4-0.5,0.6c-0.2,0.2-0.4,0.4-0.7,0.5c-0.3,0.1-0.6,0.2-1,0.3s-0.8,0.1-1.3,0.1h-0.3l-0.2-1.4h0.7
		c0.4,0,0.7,0,0.9-0.1c0.2-0.1,0.4-0.2,0.6-0.3s0.2-0.3,0.3-0.6c0.1-0.2,0.1-0.5,0.1-0.7C179.7,149.4,179.7,149.2,179.7,148.8z"/>
	<path class="st0" d="M189.3,139.6c0.3,0,0.6,0,0.8,0.1l-0.1,1.5c-0.3-0.1-0.6-0.1-0.8-0.1c-0.9,0-1.7,0.3-2.3,1
		c-0.6,0.6-0.9,1.5-0.9,2.4v6.2h-1.7c0-6.7,0-10.4,0-11h1.4l0.2,2c0.4-0.6,0.9-1.1,1.4-1.5C188,139.8,188.7,139.6,189.3,139.6z"/>
	<path class="st0" d="M192.5,150.7c-0.3,0-0.6-0.1-0.8-0.3c-0.2-0.2-0.3-0.5-0.3-0.7c0-0.3,0.1-0.5,0.3-0.7c0.2-0.2,0.4-0.3,0.8-0.3
		s0.6,0.1,0.8,0.3c0.2,0.2,0.3,0.5,0.3,0.7c0,0.3-0.1,0.5-0.3,0.7S192.8,150.7,192.5,150.7z"/>
	<path class="st0" d="M195.2,152.8c0-0.2,0.1-0.6,0.1-1.2c0.1-0.7,0.1-1.2,0.2-1.7c0-0.5,0.1-0.8,0.1-1.2h1.6v0.4
		c-0.3,1.1-0.6,2.3-1.2,3.7H195.2z"/>
	<path class="st0" d="M213.6,144.7c0,1.9-0.5,3.4-1.6,4.4c-1.1,1-2.6,1.5-4.6,1.5h-3.5v-11.8h3.3c1,0,1.9,0.1,2.6,0.3
		c0.8,0.2,1.5,0.6,2,1.1c0.6,0.5,1,1.1,1.3,1.8S213.6,143.7,213.6,144.7z M212.1,144.7c0-1.7-0.4-2.9-1.3-3.6s-2.1-1.1-3.7-1.1h-1.9
		v9.4h2.1c1.6,0,2.7-0.4,3.6-1.2C211.7,147.5,212.1,146.3,212.1,144.7z"/>
	<path class="st0" d="M221.1,149.9l-3.6-8.4l-0.3-0.8l0.1,2.9v7.1h-1.3v-11.8h1.8l4.1,9.4l4.1-9.4h1.7v11.8h-1.3v-7.1l0.1-2.8
		l-0.3,0.8l-3.6,8.4H221.1z"/>
	<path class="st0" d="M240.1,144.7c0,1.9-0.5,3.4-1.6,4.4c-1.1,1-2.6,1.5-4.6,1.5h-3.5v-11.8h3.3c1,0,1.9,0.1,2.6,0.3
		c0.8,0.2,1.5,0.6,2,1.1c0.6,0.5,1,1.1,1.3,1.8S240.1,143.7,240.1,144.7z M238.6,144.7c0-1.7-0.4-2.9-1.3-3.6s-2.1-1.1-3.7-1.1h-1.9
		v9.4h2.1c1.6,0,2.7-0.4,3.6-1.2C238.2,147.5,238.6,146.3,238.6,144.7z"/>
	<path class="st0" d="M271,150.6l-4.5-14.8h1.8l3.7,12.7l3.7-12.4h1.9l3.5,12.5l3.7-12.7h1.8l-4.5,14.8h-1.9l-3.6-12.4l-3.8,12.4
		H271z"/>
	<path class="st0" d="M290,135.7v2h-1.7v-2H290z M290,139.7v11h-1.7v-11H290z"/>
	<path class="st0" d="M296.1,150.8c-1.1,0-1.8-0.3-2.3-0.9s-0.7-1.6-0.7-3v-11.6l1.7-0.1v11c0,0.5,0,0.8,0,1.1c0,0.3,0,0.5,0.1,0.8
		c0,0.3,0.1,0.5,0.2,0.6s0.2,0.3,0.3,0.4c0.1,0.1,0.3,0.2,0.5,0.2c0.2,0,0.4,0.1,0.7,0.1c0.2,0,0.6,0,1.3-0.1l0.1,1.3
		C297.1,150.8,296.6,150.8,296.1,150.8z"/>
	<path class="st0" d="M301.8,150.8c-1.1,0-1.8-0.3-2.3-0.9s-0.7-1.6-0.7-3v-11.6l1.7-0.1v11c0,0.5,0,0.8,0,1.1c0,0.3,0,0.5,0.1,0.8
		c0,0.3,0.1,0.5,0.2,0.6s0.2,0.3,0.3,0.4c0.1,0.1,0.3,0.2,0.5,0.2c0.2,0,0.4,0.1,0.7,0.1c0.2,0,0.6,0,1.3-0.1l0.1,1.3
		C302.8,150.8,302.2,150.8,301.8,150.8z"/>
	<path class="st0" d="M306.5,135.7v2h-1.7v-2H306.5z M306.5,139.7v11h-1.7v-11H306.5z"/>
	<path class="st0" d="M312.9,150.8c-0.7,0-1.4-0.1-2.1-0.2c-0.6-0.2-1.1-0.4-1.5-0.6l0.2-1.4c1.1,0.6,2.2,0.9,3.3,0.9
		c1.6,0,2.5-0.6,2.5-1.7c0-0.5-0.2-0.9-0.5-1.1c-0.3-0.3-1-0.6-2-0.9l-0.8-0.3c-1-0.3-1.6-0.7-2.1-1.2c-0.4-0.5-0.6-1.1-0.6-1.8
		c0-0.9,0.3-1.6,1-2.1c0.7-0.6,1.6-0.8,2.8-0.8c1.2,0,2.4,0.2,3.4,0.7l-0.5,1.3c-1-0.4-2-0.6-2.9-0.6c-0.7,0-1.2,0.1-1.6,0.4
		c-0.4,0.3-0.6,0.7-0.6,1.2c0,0.4,0.1,0.8,0.4,1s0.9,0.5,1.7,0.8c0.2,0.1,0.5,0.2,0.8,0.3c1.1,0.4,1.9,0.8,2.3,1.3s0.7,1.1,0.7,2
		c0,1-0.4,1.8-1.1,2.4C315,150.6,314.1,150.8,312.9,150.8z"/>
	<path class="st0" d="M325.1,148.8v-13.1h1.8v12.5c0,0.5,0,0.9,0,1.2c0,0.3-0.1,0.7-0.1,1c-0.1,0.3-0.1,0.6-0.3,0.8
		c-0.1,0.2-0.3,0.4-0.5,0.6c-0.2,0.2-0.4,0.4-0.7,0.5c-0.3,0.1-0.6,0.2-1,0.3c-0.4,0.1-0.8,0.1-1.3,0.1h-0.3l-0.2-1.4h0.7
		c0.4,0,0.7,0,0.9-0.1c0.2-0.1,0.4-0.2,0.6-0.3c0.1-0.1,0.2-0.3,0.3-0.6c0.1-0.2,0.1-0.5,0.1-0.7C325,149.4,325.1,149.2,325.1,148.8
		z"/>
	<path class="st0" d="M330.4,150.7c-0.3,0-0.6-0.1-0.8-0.3c-0.2-0.2-0.3-0.5-0.3-0.7c0-0.3,0.1-0.5,0.3-0.7c0.2-0.2,0.4-0.3,0.8-0.3
		s0.6,0.1,0.8,0.3c0.2,0.2,0.3,0.5,0.3,0.7c0,0.3-0.1,0.5-0.3,0.7C331,150.6,330.7,150.7,330.4,150.7z"/>
	<path class="st0" d="M345.5,149.7l-4.5-10.5l-0.4-1l0.1,3.6v8.8h-1.6v-14.8h2.2l5.1,11.8l5.1-11.8h2.2v14.8h-1.7v-8.9l0.1-3.5
		l-0.4,1l-4.5,10.5H345.5z"/>
	<path class="st0" d="M361.5,150.8c-1.6,0-2.8-0.5-3.8-1.5s-1.4-2.4-1.4-4.2c0-1.7,0.4-3.1,1.3-4.1c0.9-1.1,2-1.6,3.5-1.6
		c1.4,0,2.4,0.5,3.2,1.4c0.8,0.9,1.2,2.2,1.2,3.7c0,0.1,0,0.2,0,0.4c0,0.2,0,0.4,0,0.5h-7.5c0,1.2,0.3,2.2,1,2.9
		c0.6,0.7,1.5,1,2.5,1c1.2,0,2.3-0.3,3.5-0.9l0.3,1.3C364.2,150.5,363,150.8,361.5,150.8z M363.2,141.7c-0.5-0.6-1.2-0.9-2-0.9
		c-0.9,0-1.5,0.3-2.1,0.9s-0.9,1.4-0.9,2.5h5.8C364,143.1,363.7,142.3,363.2,141.7z"/>
	<path class="st0" d="M372.9,139.6c0.3,0,0.6,0,0.8,0.1l-0.1,1.5c-0.3-0.1-0.6-0.1-0.8-0.1c-0.9,0-1.7,0.3-2.3,1
		c-0.6,0.6-0.9,1.5-0.9,2.4v6.2H368c0-6.7,0-10.4,0-11h1.4l0.2,2c0.4-0.6,0.9-1.1,1.4-1.5C371.6,139.8,372.2,139.6,372.9,139.6z"/>
	<path class="st0" d="M377.4,135.7v2h-1.7v-2H377.4z M377.4,139.7v11h-1.7v-11H377.4z"/>
	<path class="st0" d="M390,150.6c-1.5-4.9-2.5-8-2.9-9.2c-0.2,0.7-0.4,1.5-0.7,2.4c-0.3,0.9-0.5,1.6-0.7,2.2
		c-0.2,0.6-0.5,1.4-0.8,2.4c-0.3,1-0.6,1.7-0.7,2.2h-1.8l-3.1-11h1.7l2.3,9c0.3-1.1,1.3-4.1,2.9-9h1.9c1.6,5,2.5,8,2.8,8.9l2.3-8.9
		h1.7l-3.2,11H390z"/>
	<path class="st0" d="M401.1,150.8c-1.6,0-2.8-0.5-3.8-1.5s-1.4-2.4-1.4-4.2c0-1.7,0.4-3.1,1.3-4.1c0.9-1.1,2-1.6,3.5-1.6
		c1.4,0,2.4,0.5,3.2,1.4c0.8,0.9,1.2,2.2,1.2,3.7c0,0.1,0,0.2,0,0.4c0,0.2,0,0.4,0,0.5h-7.5c0,1.2,0.3,2.2,1,2.9
		c0.6,0.7,1.5,1,2.5,1c1.2,0,2.3-0.3,3.5-0.9l0.3,1.3C403.8,150.5,402.5,150.8,401.1,150.8z M402.8,141.7c-0.5-0.6-1.2-0.9-2-0.9
		c-0.9,0-1.5,0.3-2.1,0.9s-0.9,1.4-0.9,2.5h5.8C403.5,143.1,403.3,142.3,402.8,141.7z"/>
	<path class="st0" d="M411,150.8c-1.1,0-1.8-0.3-2.3-0.8c-0.5-0.5-0.7-1.4-0.7-2.5v-6.6h-1.6l0.1-1.1l1.5-0.1l0.6-2.5l1.1,0v2.5h3
		v1.2h-3v6.3c0,0.8,0.1,1.4,0.4,1.8c0.3,0.3,0.7,0.5,1.3,0.5c0.2,0,0.7-0.1,1.4-0.2l0.1,1.3C412,150.8,411.4,150.8,411,150.8z"/>
	<path class="st0" d="M422,150.6V144c0-1.1-0.2-1.9-0.5-2.4s-1-0.7-1.8-0.7c-0.8,0-1.5,0.2-2.1,0.6c-0.6,0.4-1,1-1.1,1.6
		c-0.1,0.5-0.1,1.1-0.1,1.7v5.8h-1.7v-15.2l1.7-0.1v4.5c0,0.4,0,0.8,0,1.4c0.9-1.2,2.2-1.7,3.7-1.7c2.4,0,3.7,1.4,3.7,4.3v6.9H422z"
		/>
	<path class="st0" d="M430.4,150.8c-1.6,0-2.8-0.5-3.8-1.5s-1.4-2.4-1.4-4.2c0-1.7,0.4-3.1,1.3-4.1c0.9-1.1,2-1.6,3.5-1.6
		c1.4,0,2.4,0.5,3.2,1.4c0.8,0.9,1.2,2.2,1.2,3.7c0,0.1,0,0.2,0,0.4c0,0.2,0,0.4,0,0.5h-7.5c0,1.2,0.3,2.2,1,2.9
		c0.6,0.7,1.5,1,2.5,1c1.2,0,2.3-0.3,3.5-0.9l0.3,1.3C433,150.5,431.8,150.8,430.4,150.8z M432,141.7c-0.5-0.6-1.2-0.9-2-0.9
		c-0.9,0-1.5,0.3-2.1,0.9s-0.9,1.4-0.9,2.5h5.8C432.8,143.1,432.5,142.3,432,141.7z"/>
	<path class="st0" d="M441.7,139.6c0.3,0,0.6,0,0.8,0.1l-0.1,1.5c-0.3-0.1-0.6-0.1-0.8-0.1c-0.9,0-1.7,0.3-2.3,1
		c-0.6,0.6-0.9,1.5-0.9,2.4v6.2h-1.7c0-6.7,0-10.4,0-11h1.4l0.2,2c0.4-0.6,0.9-1.1,1.4-1.5C440.4,139.8,441,139.6,441.7,139.6z"/>
	<path class="st0" d="M443.7,152.8c0-0.2,0.1-0.6,0.1-1.2s0.1-1.2,0.2-1.7c0-0.5,0.1-0.8,0.1-1.2h1.6v0.4c-0.3,1.1-0.6,2.3-1.1,3.7
		H443.7z"/>
	<path class="st0" d="M462,144.7c0,1.9-0.5,3.4-1.6,4.4s-2.6,1.5-4.6,1.5h-3.5v-11.8h3.3c1,0,1.9,0.1,2.6,0.3c0.8,0.2,1.5,0.6,2,1.1
		c0.6,0.5,1,1.1,1.3,1.8S462,143.7,462,144.7z M460.5,144.7c0-1.7-0.4-2.9-1.3-3.6c-0.9-0.8-2.1-1.1-3.7-1.1h-1.9v9.4h2.1
		c1.6,0,2.7-0.4,3.6-1.2C460.1,147.5,460.5,146.3,460.5,144.7z"/>
	<path class="st0" d="M469.5,149.9l-3.6-8.4l-0.3-0.8l0.1,2.9v7.1h-1.3v-11.8h1.8l4.1,9.4l4.1-9.4h1.7v11.8h-1.3v-7.1l0.1-2.8
		l-0.3,0.8l-3.6,8.4H469.5z"/>
	<path class="st0" d="M488.5,144.7c0,1.9-0.5,3.4-1.6,4.4s-2.6,1.5-4.6,1.5h-3.5v-11.8h3.3c1,0,1.9,0.1,2.6,0.3
		c0.8,0.2,1.5,0.6,2,1.1c0.6,0.5,1,1.1,1.3,1.8S488.5,143.7,488.5,144.7z M487.1,144.7c0-1.7-0.4-2.9-1.3-3.6
		c-0.9-0.8-2.1-1.1-3.7-1.1h-1.9v9.4h2.1c1.6,0,2.7-0.4,3.6-1.2C486.7,147.5,487.1,146.3,487.1,144.7z"/>
	<path class="st0" d="M489.3,152.8c0-0.2,0.1-0.6,0.1-1.2s0.1-1.2,0.2-1.7c0-0.5,0.1-0.8,0.1-1.2h1.6v0.4c-0.3,1.1-0.6,2.3-1.1,3.7
		H489.3z"/>
	<path class="st0" d="M499.4,150.6H498v-11.8h6.6l-0.1,1.2h-5.1v4.1h4.9v1.2h-4.9V150.6z"/>
	<path class="st0" d="M513.5,150.6l-1.4-3.7h-4.7l-1.4,3.7h-1.4l4.5-11.8h1.4l4.4,11.8H513.5z M511.7,145.7
		c-1.1-3.3-1.7-5.1-1.9-5.5l-1.9,5.5H511.7z"/>
	<path class="st0" d="M521.4,150.8c-0.9,0-1.7-0.2-2.4-0.5c-0.7-0.3-1.3-0.7-1.8-1.3c-0.5-0.5-0.8-1.2-1.1-1.9
		c-0.2-0.7-0.4-1.6-0.4-2.4c0-1.2,0.2-2.2,0.7-3.2c0.5-0.9,1.1-1.6,2-2.2s2-0.8,3.2-0.8c1.4,0,2.6,0.3,3.6,0.9l-0.5,1.1
		c-1-0.6-2-0.9-3-0.9c-0.7,0-1.4,0.1-1.9,0.4s-1,0.6-1.4,1c-0.4,0.4-0.6,1-0.8,1.5c-0.2,0.6-0.3,1.2-0.3,2c0,1.5,0.4,2.7,1.1,3.6
		c0.7,0.9,1.9,1.3,3.3,1.3c0.8,0,1.7-0.2,2.5-0.5v-3.4h-2.8l0-1.2h4v5.4c-0.7,0.3-1.3,0.5-1.9,0.7S522.2,150.8,521.4,150.8z"/>
	<path class="st0" d="M537.6,144.7c0,1.9-0.5,3.4-1.6,4.4s-2.6,1.5-4.6,1.5h-3.5v-11.8h3.3c1,0,1.9,0.1,2.6,0.3
		c0.8,0.2,1.5,0.6,2,1.1c0.6,0.5,1,1.1,1.3,1.8S537.6,143.7,537.6,144.7z M536.1,144.7c0-1.7-0.4-2.9-1.3-3.6
		c-0.9-0.8-2.1-1.1-3.7-1.1h-1.9v9.4h2.1c1.6,0,2.7-0.4,3.6-1.2C535.7,147.5,536.1,146.3,536.1,144.7z"/>
</g>
<rect x="251.8" y="141.7" class="st1" width="4.9" height="4.9"/>
</svg>
